<svg xmlns="http://www.w3.org/2000/svg" viewBox="0 0 240 240" width="240" height="240">
  <circle cx="120" cy="120" r="114" fill="#FFFFFF" stroke="#CB8C67" stroke-width="5"/>
  <path transform="translate(35.72,151.00) scale(0.9012)" fill="#CB8C67" d="M56.98,-0.00 L49.12,-20.12 L17.78,-20.12 L9.86,-0.00 L0.20,-0.00 L28.27,-68.80 L38.88,-68.80 L66.50,-0.00 L56.98,-0.00 Z M33.45,-61.77 L33.02,-60.41 Q31.78,-56.34 29.39,-50.00 L20.61,-27.39 L46.34,-27.39 L37.50,-50.09 Q36.14,-53.47 34.77,-57.72 L33.45,-61.77 Z M97.51,-0.00 L87.84,-0.00 L59.76,-68.80 L69.57,-68.80 L88.62,-20.36 L92.73,-8.20 L96.82,-20.36 L115.78,-68.80 L125.59,-68.80 L97.51,-0.00 Z"/>
  <path transform="translate(156.90,89.00) scale(0.6200)" fill="#CB8C67" d="M75.33,92.62 L75,90.75 L73.68,88.55 L66.96,82.27 L11.67,45.7 L7.38,41.63 L3.41,35.46 L0.77,27.31 L-0.11,17.4 L1.1,8.04 L1.65,10.35 L3.19,13 L9.69,18.83 L64.1,54.52 L68.83,58.81 L73.46,66.3 L75.66,73.35 L76.54,84.14 L75.33,92.62 Z M33.48,100.11 L0,100.11 L-0.11,72.03 L5.84,81.5 L13.88,89.76 L23.57,96.15 L33.48,100.11 Z M76.43,28.08 L73.9,23.35 L70.15,18.06 L63.44,11.12 L55.07,5.18 L49.78,2.53 L43.06,0.22 L76.43,0.11 L76.43,28.08 Z"/>
</svg>