<svg xmlns="http://www.w3.org/2000/svg" viewBox="0 0 240 240" width="240" height="240">
  <circle cx="120" cy="120" r="114" fill="#FFFFFF" stroke="#CB8C67" stroke-width="9"/>
  <path transform="translate(25.84,154.00) scale(0.9884)" fill="#CB8C67" stroke="#CB8C67" stroke-width="1.2" d="M55.33,-0.00 L49.22,-17.58 L23.00,-17.58 L16.89,-0.00 L2.48,-0.00 L27.59,-68.80 L44.58,-68.80 L69.58,-0.00 L55.33,-0.00 Z M36.08,-58.20 L35.80,-57.12 Q35.30,-55.38 34.61,-53.12 Q33.94,-50.88 26.22,-28.42 L46.00,-28.42 L39.20,-48.19 L37.11,-54.83 L36.08,-58.20 Z M105.56,-0.00 L90.97,-0.00 L65.53,-68.80 L80.56,-68.80 L94.73,-24.61 Q96.04,-20.31 98.34,-11.62 L99.36,-15.83 L101.86,-24.61 L115.97,-68.80 L130.86,-68.80 L105.56,-0.00 Z"/>
  <path transform="translate(162.18,86.00) scale(0.6800)" fill="#CB8C67" stroke="#CB8C67" stroke-width="2.5" stroke-linejoin="round" d="M75.33,92.62 L75,90.75 L73.68,88.55 L66.96,82.27 L11.67,45.7 L7.38,41.63 L3.41,35.46 L0.77,27.31 L-0.11,17.4 L1.1,8.04 L1.65,10.35 L3.19,13 L9.69,18.83 L64.1,54.52 L68.83,58.81 L73.46,66.3 L75.66,73.35 L76.54,84.14 L75.33,92.62 Z M33.48,100.11 L0,100.11 L-0.11,72.03 L5.84,81.5 L13.88,89.76 L23.57,96.15 L33.48,100.11 Z M76.43,28.08 L73.9,23.35 L70.15,18.06 L63.44,11.12 L55.07,5.18 L49.78,2.53 L43.06,0.22 L76.43,0.11 L76.43,28.08 Z"/>
</svg>